<?xml version="1.0" encoding="UTF-8" standalone="no"?>
<!-- Created with Inkscape (http://www.inkscape.org/) -->

<svg
   width="23.752344mm"
   height="25.180004mm"
   viewBox="0 0 23.752344 25.180004"
   version="1.1"
   id="svg1"
   xml:space="preserve"
   inkscape:version="1.4 (86a8ad7, 2024-10-11)"
   sodipodi:docname="iconos_proyectos_PHP_JAVA.svg"
   xmlns:inkscape="http://www.inkscape.org/namespaces/inkscape"
   xmlns:sodipodi="http://sodipodi.sourceforge.net/DTD/sodipodi-0.dtd"
   xmlns="http://www.w3.org/2000/svg"
   xmlns:svg="http://www.w3.org/2000/svg"><sodipodi:namedview
     id="namedview1"
     pagecolor="#ffffff"
     bordercolor="#000000"
     borderopacity="0.25"
     inkscape:showpageshadow="2"
     inkscape:pageopacity="0.0"
     inkscape:pagecheckerboard="0"
     inkscape:deskcolor="#d1d1d1"
     inkscape:document-units="mm"
     inkscape:zoom="4"
     inkscape:cx="291.625"
     inkscape:cy="61.375001"
     inkscape:window-width="1920"
     inkscape:window-height="1009"
     inkscape:window-x="1352"
     inkscape:window-y="-8"
     inkscape:window-maximized="1"
     inkscape:current-layer="layer1"
     showguides="true"><inkscape:page
       x="0"
       y="0"
       width="23.752344"
       height="25.180004"
       id="page2"
       margin="0"
       bleed="0" /></sodipodi:namedview><defs
     id="defs1"><linearGradient
       id="swatch30"
       inkscape:swatch="solid"><stop
         style="stop-color:#ffffff;stop-opacity:1;"
         offset="0"
         id="stop30" /></linearGradient></defs><g
     inkscape:label="Capa 1"
     inkscape:groupmode="layer"
     id="layer1"
     transform="translate(-71.777715,-60.18473)"><g
       id="g63"
       transform="matrix(0.35875333,0,0,0.35875333,38.278015,56.971315)"><path
         style="fill:#e93038;fill-opacity:1;stroke:none;stroke-width:0.219596;stroke-dasharray:none;stroke-opacity:1"
         d="m 95.447548,72.713504 c 0,0 -2.238444,2.983745 -2.059253,4.344835 0.128377,0.975097 1.102831,2.086342 2.086341,2.086342 0.984932,0 1.966811,-1.112078 2.089356,-2.089356 0.171898,-1.370866 -2.116444,-4.341821 -2.116444,-4.341821 z"
         id="path62"
         sodipodi:nodetypes="csssc"
         inkscape:export-filename="banckblood_icon.png"
         inkscape:export-xdpi="547.51648"
         inkscape:export-ydpi="547.51648" /></g><g
       id="g61"
       transform="matrix(0.49700417,0.49700417,-0.49700417,0.49700417,84.268127,6.1323254)"><g
         id="g60"
         transform="translate(-18.224609,2.3189073)"><rect
           style="fill:#1a1a1a;fill-opacity:1;stroke-width:0.727526"
           id="rect31"
           width="0.88867116"
           height="14.426105"
           x="83.488312"
           y="72.964577"
           ry="1.0876826"
           rx="0.44433558" /><rect
           style="fill:#e93038;fill-opacity:1;stroke-width:0.11821"
           id="rect32"
           width="4.911077"
           height="1.8241136"
           x="81.477112"
           y="73.245216"
           ry="0.44697222" /><rect
           style="fill:#a3ebeb;fill-opacity:1;stroke-width:0.465"
           id="rect33"
           width="6.7819638"
           height="20.439436"
           x="80.541664"
           y="53.039635"
           ry="0.94671226" /><rect
           style="fill:#1a1a1a;fill-opacity:1;stroke-width:0.182108"
           id="rect43"
           width="9.681838"
           height="2.1959405"
           x="79.091728"
           y="52.808125"
           ry="0.7856673" /><rect
           style="fill:#1a1a1a;fill-opacity:1;stroke-width:0.212225"
           id="rect44"
           width="3.1337347"
           height="9.2141161"
           x="82.365784"
           y="44.012604"
           ry="0.42677873" /><rect
           style="fill:#1a1a1a;fill-opacity:1;stroke-width:0.11499"
           id="rect45"
           width="7.2496853"
           height="1.1693034"
           x="80.307808"
           y="44.012604"
           ry="0.58465171" /><rect
           style="fill:#e93038;fill-opacity:1;stroke-width:0.335139"
           id="rect46"
           width="6.7819638"
           height="10.617281"
           x="80.541664"
           y="62.86179"
           ry="0.49177045" /><rect
           style="fill:#1a1a1a;fill-opacity:1;stroke-width:0.0464185"
           id="rect47"
           width="1.9863909"
           height="0.69540608"
           x="85.337234"
           y="68.384972"
           ry="0.032209769" /><rect
           style="fill:#1a1a1a;fill-opacity:1;stroke-width:0.0464185"
           id="rect57"
           width="1.9863909"
           height="0.69540608"
           x="85.337234"
           y="66.268303"
           ry="0.032209769" /><rect
           style="fill:#1a1a1a;fill-opacity:1;stroke-width:0.0464185"
           id="rect58"
           width="1.9863909"
           height="0.69540608"
           x="85.337234"
           y="64.151634"
           ry="0.032209769" /><rect
           style="fill:#1a1a1a;fill-opacity:1;stroke-width:0.0464185"
           id="rect59"
           width="1.9863909"
           height="0.69540608"
           x="85.337234"
           y="62.034966"
           ry="0.032209769" /><rect
           style="fill:#1a1a1a;fill-opacity:1;stroke-width:0.0464185"
           id="rect60"
           width="1.9863909"
           height="0.69540608"
           x="85.337234"
           y="59.918297"
           ry="0.032209769" /></g><path
         id="path60"
         style="fill:#ffffff;fill-opacity:1;stroke-width:0.306932"
         d="m 65.050398,70.791385 c -0.06803,0 -0.122796,0.05476 -0.122796,0.1228 v 1.116076 h -1.116079 c -0.06803,0 -0.122796,0.05476 -0.122796,0.1228 v 1.315279 c 0,0.06803 0.05476,0.122793 0.122796,0.122793 h 1.116079 v 1.116083 c 0,0.06803 0.05476,0.122793 0.122796,0.122793 h 1.315281 c 0.06803,0 0.122796,-0.05476 0.122796,-0.122793 v -1.116083 h 1.116079 c 0.06803,0 0.122796,-0.05476 0.122796,-0.122793 v -1.315279 c 0,-0.06803 -0.05476,-0.1228 -0.122796,-0.1228 h -1.116079 v -1.116076 c 0,-0.06803 -0.05476,-0.1228 -0.122796,-0.1228 z" /></g></g></svg>
